<svg height="512pt" viewBox="0 0 512 512" width="512pt" xmlns="http://www.w3.org/2000/svg"><path d="m512 256c0 141.386719-114.613281 256-256 256s-256-114.613281-256-256c0-2.8125.0429688-5.609375.136719-8.390625 4.429687-137.496094 117.289062-247.609375 255.863281-247.609375s251.433594 110.113281 255.863281 247.609375c.09375 2.78125.136719 5.578125.136719 8.390625zm0 0" fill="#96d6d4"/><path d="m478.855469 256c0 123.082031-99.773438 222.855469-222.855469 222.855469s-222.855469-99.773438-222.855469-222.855469c0-2.445312.035157-4.886719.117188-7.304688 3.855469-119.695312 102.105469-215.550781 222.738281-215.550781s218.882812 95.855469 222.738281 215.550781c.082031 2.417969.117188 4.859376.117188 7.304688zm0 0" fill="#f73e3e"/><path d="m256 452.734375c-108.480469 0-196.734375-88.253906-196.734375-196.734375 0-2.238281.035156-4.398438.101563-6.417969 1.652343-51.21875 22.839843-99.074219 59.660156-134.800781 36.902344-35.800781 85.546875-55.515625 136.972656-55.515625s100.070312 19.714844 136.96875 55.515625c36.824219 35.726562 58.011719 83.582031 59.660156 134.757812.070313 2.0625.105469 4.222657.105469 6.460938 0 108.480469-88.253906 196.734375-196.734375 196.734375zm0 0" fill="#ff931f"/><path d="m256 426.613281c-94.074219 0-170.613281-76.539062-170.613281-170.613281 0-1.949219.03125-3.808594.089843-5.527344 1.433594-44.445312 19.804688-85.960937 51.742188-116.941406 32-31.046875 74.183594-48.144531 118.78125-48.144531s86.78125 17.097656 118.78125 48.144531c31.9375 30.980469 50.308594 72.480469 51.738281 116.847656.0625 1.800782.09375 3.675782.09375 5.621094 0 94.074219-76.539062 170.613281-170.613281 170.613281zm0 0" fill="#ffbb16"/><path d="m256 400.488281c-79.671875 0-144.488281-64.816406-144.488281-144.488281 0-1.65625.023437-3.214844.070312-4.636719 1.214844-37.671875 16.78125-72.84375 43.824219-99.085937 27.101562-26.289063 62.824219-40.769532 100.59375-40.769532s73.492188 14.480469 100.59375 40.769532c27.042969 26.242187 42.609375 61.378906 43.820312 98.941406.050782 1.53125.074219 3.128906.074219 4.78125 0 79.671875-64.816406 144.488281-144.488281 144.488281zm0 0" fill="#21bf4a"/><path d="m256 374.367188c-65.265625 0-118.367188-53.097657-118.367188-118.367188 0-1.363281.019532-2.621094.058594-3.746094.996094-30.894531 13.746094-59.726562 35.90625-81.222656 22.199219-21.535156 51.460938-33.398438 82.402344-33.398438 30.9375 0 60.203125 11.863282 82.402344 33.398438 22.160156 21.496094 34.910156 50.273438 35.898437 81.03125.042969 1.265625.066407 2.578125.066407 3.9375 0 65.265625-53.101563 118.367188-118.367188 118.367188zm0 0" fill="#69b8d4"/><path d="m256 348.246094c-50.863281 0-92.246094-41.382813-92.246094-92.246094 0-1.039062.015625-2 .042969-2.855469.777344-24.121093 10.71875-46.609375 27.992187-63.367187 17.296876-16.78125 40.101563-26.019532 64.210938-26.019532s46.914062 9.242188 64.214844 26.023438c17.269531 16.753906 27.207031 39.171875 27.980468 63.121094.035157 1.019531.050782 2.039062.050782 3.097656 0 50.863281-41.382813 92.246094-92.246094 92.246094zm0 0" fill="#0084a6"/><path d="m256 322.121094c-36.460938 0-66.121094-29.660156-66.121094-66.121094 0-.714844.007813-1.378906.027344-1.96875.558594-17.34375 7.683594-33.488281 20.070312-45.503906 12.394532-12.027344 28.738282-18.648438 46.023438-18.648438 17.28125 0 33.625 6.621094 46.023438 18.648438 12.382812 12.015625 19.507812 28.074218 20.0625 45.214844.023437.757812.035156 1.496093.035156 2.257812 0 36.460938-29.660156 66.121094-66.121094 66.121094zm0 0" fill="#96d6d4"/><path d="m512 256c0 141.386719-114.613281 256-256 256s-256-114.613281-256-256c0-2.8125.0429688-5.609375.136719-8.390625h511.726562c.09375 2.78125.136719 5.578125.136719 8.390625zm0 0" fill="#21bf4a"/><g fill="#17aa3d"><path d="m347.1875 461.625h-20.878906v-5.222656c0-14.332032-13.898438-19.550782-14.039063-19.601563-2.710937-.984375-4.109375-3.984375-3.121093-6.695312.984374-2.710938 3.980468-4.109375 6.695312-3.125.777344.285156 17.625 6.617187 20.496094 24.195312h.8125c2.871094-17.574219 19.71875-23.910156 20.496094-24.195312 2.714843-.984375 5.710937.414062 6.695312 3.125.984375 2.703125-.402344 5.695312-3.101562 6.6875-.628907.238281-14.058594 5.476562-14.058594 19.609375v5.222656zm0 0"/><path d="m337.664062 461.628906c-.394531 0-.792968-.046875-1.195312-.140625-2.804688-.65625-4.550781-3.457031-3.898438-6.265625.066407-.289062 4.753907-21.726562-8.136718-34.613281-2.039063-2.042969-2.039063-5.347656 0-7.390625 2.039062-2.039062 5.347656-2.039062 7.386718 0 17.066407 17.0625 11.183594 43.265625 10.925782 44.371094-.5625 2.410156-2.710938 4.039062-5.082032 4.039062zm0 0"/><path d="m184.835938 441.238281h-20.882813v-5.222656c0-14.332031-13.894531-19.550781-14.035156-19.601563-2.710938-.984374-4.109375-3.984374-3.125-6.695312.988281-2.710938 3.984375-4.109375 6.699219-3.125.777343.285156 17.625 6.617188 20.496093 24.195312h.8125c2.871094-17.574218 19.714844-23.910156 20.496094-24.195312 2.714844-.984375 5.710937.414062 6.695313 3.125.984374 2.703125-.402344 5.695312-3.101563 6.6875-.628906.238281-14.058594 5.476562-14.058594 19.609375v5.222656zm0 0"/><path d="m175.3125 441.242188c-.394531 0-.792969-.046876-1.195312-.136719-2.804688-.65625-4.550782-3.460938-3.898438-6.265625.0625-.292969 4.753906-21.726563-8.136719-34.617188-2.042969-2.042968-2.042969-5.347656 0-7.390625 2.039063-2.039062 5.347657-2.039062 7.386719 0 17.0625 17.066407 11.183594 43.265625 10.925781 44.375-.5625 2.40625-2.710937 4.035157-5.082031 4.035157zm0 0"/><path d="m294.199219 365.714844h-14.484375v-3.625c0-9.941406-9.640625-13.5625-9.738282-13.597656-1.882812-.683594-2.851562-2.761719-2.167968-4.644532.683594-1.878906 2.761718-2.851562 4.644531-2.167968.542969.199218 12.226563 4.59375 14.222656 16.789062h.5625c1.992188-12.195312 13.679688-16.589844 14.21875-16.789062 1.882813-.683594 3.960938.289062 4.648438 2.167968.679687 1.875-.28125 3.949219-2.152344 4.640625-.4375.164063-9.753906 3.796875-9.753906 13.601563zm0 0"/><path d="m287.589844 365.714844c-.269532 0-.546875-.03125-.824219-.09375-1.949219-.457032-3.160156-2.402344-2.707031-4.347656.042968-.203126 3.296875-15.074219-5.644532-24.015626-1.417968-1.417968-1.417968-3.710937 0-5.125 1.414063-1.417968 3.710938-1.417968 5.125 0 11.839844 11.835938 7.757813 30.015626 7.578126 30.78125-.390626 1.671876-1.878907 2.800782-3.527344 2.800782zm0 0"/><path d="m426.367188 344.046875h-14.488282v-3.625c0-9.941406-9.640625-13.5625-9.738281-13.597656-1.878906-.683594-2.847656-2.765625-2.164063-4.644531.683594-1.878907 2.761719-2.851563 4.644532-2.167969.542968.195312 12.226562 4.589843 14.222656 16.785156h.558594c1.996094-12.195313 13.683594-16.589844 14.222656-16.785156 1.882812-.683594 3.960938.285156 4.644531 2.167969.683594 1.875-.28125 3.949218-2.152343 4.640624-.433594.164063-9.75 3.796876-9.75 13.601563zm0 0"/><path d="m419.757812 344.046875c-.273437 0-.550781-.03125-.828124-.097656-1.945313-.453125-3.15625-2.398438-2.703126-4.347657.042969-.199218 3.296876-15.070312-5.644531-24.011718-1.417969-1.417969-1.417969-3.710938 0-5.128906 1.414063-1.414063 3.707031-1.414063 5.125 0 11.835938 11.839843 7.757813 30.015624 7.578125 30.785156-.390625 1.671875-1.882812 2.800781-3.527344 2.800781zm0 0"/><path d="m84.585938 353.578125h-14.484376v-3.625c0-9.941406-9.640624-13.5625-9.738281-13.597656-1.882812-.683594-2.851562-2.761719-2.167969-4.644531.683594-1.878907 2.761719-2.851563 4.644532-2.167969.542968.199219 12.230468 4.589843 14.222656 16.785156h.5625c1.992188-12.195313 13.679688-16.585937 14.21875-16.785156 1.882812-.683594 3.960938.285156 4.644531 2.167969.683594 1.875-.28125 3.949218-2.152343 4.640624-.433594.164063-9.75 3.796876-9.75 13.601563zm0 0"/><path d="m77.980469 353.578125c-.273438 0-.550781-.03125-.828125-.09375-1.949219-.457031-3.160156-2.402344-2.707032-4.347656.042969-.203125 3.296876-15.074219-5.644531-24.015625-1.417969-1.414063-1.417969-3.710938 0-5.125 1.414063-1.417969 3.710938-1.417969 5.125 0 11.839844 11.835937 7.757813 30.015625 7.578125 30.78125-.390625 1.671875-1.878906 2.800781-3.523437 2.800781zm0 0"/><path d="m155.617188 305.554688h-10.050782v-2.515626c0-6.894531-6.6875-9.40625-6.753906-9.433593-1.304688-.472657-1.980469-1.914063-1.503906-3.222657.476562-1.304687 1.917968-1.976562 3.222656-1.503906.375.140625 8.484375 3.1875 9.863281 11.648438h.390625c1.382813-8.460938 9.492188-11.507813 9.867188-11.648438 1.304687-.472656 2.746094.199219 3.222656 1.503906.472656 1.304688-.195312 2.742188-1.492188 3.21875-.304687.113282-6.765624 2.636719-6.765624 9.4375zm0 0"/><path d="m151.03125 305.554688c-.1875 0-.378906-.019532-.570312-.066407-1.351563-.316406-2.191407-1.664062-1.878907-3.015625.03125-.140625 2.289063-10.457031-3.917969-16.660156-.980468-.984375-.980468-2.574219 0-3.554688.980469-.984374 2.574219-.984374 3.558594 0 8.210938 8.210938 5.378906 20.820313 5.257813 21.355469-.269531 1.160157-1.304688 1.941407-2.449219 1.941407zm0 0"/><path d="m359.195312 279.300781h-10.050781v-2.515625c0-6.898437-6.6875-9.410156-6.753906-9.433594-1.304687-.476562-1.980469-1.917968-1.503906-3.222656.476562-1.304687 1.917969-1.980468 3.222656-1.503906.375.136719 8.484375 3.183594 9.867187 11.644531h.386719c1.386719-8.460937 9.492188-11.507812 9.867188-11.644531 1.304687-.476562 2.75.199219 3.222656 1.503906.472656 1.300782-.195313 2.738282-1.492187 3.21875-.304688.113282-6.765626 2.632813-6.765626 9.4375zm0 0"/><path d="m354.613281 279.300781c-.191406 0-.382812-.023437-.574219-.070312-1.351562-.3125-2.191406-1.664063-1.878906-3.015625.03125-.136719 2.289063-10.457032-3.914062-16.660156-.984375-.980469-.984375-2.574219 0-3.554688.980468-.980469 2.574218-.980469 3.554687 0 8.210938 8.214844 5.382813 20.824219 5.257813 21.355469-.269532 1.160156-1.304688 1.945312-2.445313 1.945312zm0 0"/></g></svg>