<svg width="380" height="351" xmlns="http://www.w3.org/2000/svg">
 <!-- Created with Method Draw - http://github.com/duopixel/Method-Draw/ -->
 <g>
  <title>background</title>
  <rect fill="#fff" id="canvas_background" height="353" width="382" y="-1" x="-1"/>
  <g display="none" overflow="visible" y="0" x="0" height="100%" width="100%" id="canvasGrid">
   <rect fill="url(#gridpattern)" stroke-width="0" y="0" x="0" height="100%" width="100%"/>
  </g>
 </g>
 <g>
  <title>Layer 1</title>
  <path id="svg_2" d="m6.99794,174.4995l0,0c0,-93.61182 81.2604,-169.49968 181.49982,-169.49968l0,0c48.13742,0 94.30312,17.85801 128.3399,49.64549c34.03815,31.78748 53.16028,74.90064 53.16028,119.85419l0,0c0,93.61297 -81.25983,169.50031 -181.50017,169.50031l0,0c-100.23942,0 -181.49982,-75.88734 -181.49982,-169.50031l-0.00001,0zm293.08119,75.82572l0,0c39.9603,-51.28671 34.02028,-122.10188 -14.00439,-166.95077c-48.02469,-44.84927 -123.85327,-50.39656 -178.76946,-13.07785l192.77385,180.02862zm-223.16166,-151.64989c-39.96058,51.28643 -34.02071,122.1016 14.00369,166.94986c48.02427,44.84954 123.85287,50.39679 178.76906,13.07849l-192.77276,-180.02834l0.00001,0z" fill-opacity="null" stroke-opacity="null" stroke-width="1.5" stroke="#000" fill="#020202"/>
 </g>
</svg>