<svg width="800" height="600" xmlns="http://www.w3.org/2000/svg">
 <!-- Created with Method Draw - http://github.com/duopixel/Method-Draw/ -->

 <g>
  <title>background</title>
  <rect fill="#31cece" id="canvas_background" height="602" width="802" y="-1" x="-1"/>
  <g display="none" overflow="visible" y="0" x="0" height="100%" width="100%" id="canvasGrid">
   <rect fill="url(#gridpattern)" stroke-width="0" y="0" x="0" height="100%" width="100%"/>
  </g>
 </g>
 <g>
  <title>Layer 1</title>
  <text font-weight="bold" stroke="#000" transform="matrix(14.623392105102539,0,0,9.63255786895752,-2145.68425655365,-1482.2371628433466) " xml:space="preserve" text-anchor="start" font-family="Helvetica, Arial, sans-serif" font-size="19" id="svg_1" y="211.62068" x="155.85879" stroke-width="0" fill="#ffffff">LNE</text>
  <path id="svg_2" d="m406.51103,134.4281c-47.77555,0 -86.46825,34.53355 -86.46825,77.17362c0,42.61066 38.6927,77.16382 86.46825,77.16382c47.73161,0 86.44628,-34.55316 86.44628,-77.16382c0.01098,-42.64007 -38.6927,-77.17362 -86.44628,-77.17362zm0,134.74262c-35.62848,-0.07842 -64.4256,-25.78009 -64.51346,-57.55919c0.07688,-31.78891 28.88499,-57.50038 64.51346,-57.5788c35.60651,0.07842 64.40363,25.78989 64.48051,57.5788c-0.07688,31.7791 -28.874,57.48077 -64.48051,57.55919zm0,-139.90844c6.07353,0 10.98288,-4.39144 10.98288,-9.81212l0,-47.55103c-0.02197,-5.42068 -4.92033,-9.80231 -10.98288,-9.80231c-6.07353,0 -10.99387,4.40124 -10.98288,9.82192l0,47.54123c0,5.40108 4.90935,9.80231 10.98288,9.80231zm35.28801,6.25388c1.37286,0.51952 2.80064,0.74498 4.19546,0.75478c4.32726,0 8.40191,-2.28394 10.15917,-6.05783l20.38423,-43.94378c2.30641,-5.00898 -0.34047,-10.73353 -5.94174,-12.80182c-5.61225,-2.06829 -12.03724,0.30387 -14.36561,5.30305l-20.37325,43.95358c-2.31739,4.99918 0.34047,10.73353 5.94174,12.79202zm29.92836,17.85002c2.14166,1.90165 4.95328,2.87208 7.7649,2.87208s5.62324,-0.96063 7.7649,-2.87208l37.67129,-33.65135c4.29431,-3.8229 4.28332,-10.02777 0,-13.87028c-4.30529,-3.8229 -11.25746,-3.8229 -15.54078,0.0196l-37.66031,33.63174c-4.29431,3.83271 -4.29431,10.03757 0,13.87028zm20.0218,26.70151c1.7353,3.77389 5.83191,6.04803 10.1372,6.04803c1.39483,0 2.8226,-0.24506 4.20644,-0.76458l49.20332,-18.2029c5.61225,-2.06829 8.27011,-7.81244 5.94174,-12.81163s-8.74238,-7.37134 -14.35463,-5.29325l-49.2143,18.2029c-5.60127,2.07809 -8.24815,7.82225 -5.91977,12.82143zm71.26793,21.67292l-53.27797,0.0098c-6.06255,0 -10.98288,4.39144 -10.96092,9.81212c0,5.42068 4.90935,9.79251 10.96092,9.79251l53.28895,-0.0196c6.07353,0 10.9719,-4.40124 10.9719,-9.80231c0,-5.42068 -4.92033,-9.81212 -10.98288,-9.79251zm-7.66605,54.1872l-49.22529,-18.17349c-5.62324,-2.07809 -12.04822,0.29407 -14.35463,5.30305c-2.31739,5.00898 0.34047,10.74334 5.94174,12.82143l49.22529,18.17349c1.38384,0.49992 2.81162,0.73517 4.20644,0.73517c4.31627,0 8.40191,-2.27414 10.15917,-6.04803c2.30641,-5.00898 -0.36244,-10.75314 -5.95272,-12.81163zm-68.02798,13.85067c-4.29431,-3.83271 -11.23549,-3.83271 -15.5298,0.0098c-4.29431,3.8229 -4.28332,10.01797 0,13.85067l37.71522,33.61214c2.14166,1.91145 4.9423,2.87208 7.75392,2.87208s5.63422,-0.96063 7.77588,-2.87208c4.29431,-3.84251 4.27234,-10.04737 0,-13.87028l-37.71522,-33.60234zm-31.09254,23.16287c-2.31739,-5.00898 -8.74238,-7.37134 -14.35463,-5.30305c-5.60127,2.07809 -8.25913,7.81244 -5.93076,12.82143l20.42816,43.91437c1.74628,3.77389 5.83191,6.04803 10.15917,6.04803c1.40581,0 2.83358,-0.23526 4.20644,-0.74498c5.61225,-2.06829 8.25913,-7.81244 5.93076,-12.83123l-20.43915,-43.90457zm-49.60969,1.00964c-6.07353,0 -10.98288,4.39144 -10.98288,9.80231l0.04393,47.55103c0,5.42068 4.93131,9.79251 10.98288,9.79251c6.07353,0 10.98288,-4.39144 10.96092,-9.80231l-0.03295,-47.56083c0,-5.39127 -4.93131,-9.79251 -10.9719,-9.78271zm-35.32096,-6.23427c-5.60127,-2.05849 -12.01528,0.30387 -14.34365,5.32266l-20.3403,43.94378c-2.30641,5.00898 0.36244,10.74334 5.96371,12.81163c1.37286,0.50972 2.78965,0.74498 4.19546,0.74498c4.30529,0 8.40191,-2.29374 10.14818,-6.06763l20.35128,-43.96338c2.31739,-4.99918 -0.36244,-10.72373 -5.97469,-12.79202zm-29.93934,-17.81081c-4.30529,-3.83271 -11.25746,-3.8131 -15.54078,0.0196l-37.62736,33.65135c-4.29431,3.84251 -4.27234,10.02777 0.02197,13.87028c2.14166,1.90165 4.9423,2.86228 7.75392,2.86228c2.8226,0 5.63422,-0.96063 7.77588,-2.87208l37.63834,-33.66115c4.27234,-3.83271 4.27234,-10.03757 -0.02197,-13.87028zm-20.03278,-26.6721c-2.33935,-4.98938 -8.75336,-7.36154 -14.35463,-5.29325l-49.19234,18.24211c-5.61225,2.07809 -8.25913,7.82225 -5.93076,12.82143c1.75726,3.77389 5.83191,6.03823 10.14818,6.03823c1.39483,0 2.83358,-0.23526 4.20644,-0.74498l49.19234,-18.24211c5.59029,-2.0977 8.24815,-7.83205 5.93076,-12.82143zm-7.09494,-31.48504c0,-5.42068 -4.90935,-9.79251 -10.98288,-9.79251l-53.27797,0.05881c-6.07353,0 -10.99387,4.39144 -10.9719,9.81212c0.01098,5.40108 4.93131,9.80231 10.98288,9.78271l53.28895,-0.05881c6.06255,0 10.98288,-4.41104 10.96092,-9.80231zm-56.62775,-44.33587l49.25823,18.13428c1.37286,0.51952 2.78965,0.74498 4.18448,0.74498c4.31627,0 8.41289,-2.27414 10.15917,-6.05783c2.32837,-5.00898 -0.35145,-10.75314 -5.97469,-12.80182l-49.23627,-18.13428c-5.61225,-2.05849 -12.02626,0.31367 -14.34365,5.31285c-2.32837,5.00898 0.36244,10.72373 5.95272,12.80182zm68.017,-13.89968c2.14166,1.89185 4.93131,2.85247 7.74293,2.85247s5.63422,-0.96063 7.78686,-2.89168c4.29431,-3.8131 4.27234,-10.02777 -0.04393,-13.86047l-37.71522,-33.56313c-4.28332,-3.8229 -11.25746,-3.8033 -15.5298,0.02941c-4.29431,3.8229 -4.27234,10.03757 0.02197,13.86047l37.73719,33.57293zm31.04861,-23.20208c1.75726,3.76409 5.84289,6.02842 10.1372,6.02842c1.40581,0 2.83358,-0.24506 4.21743,-0.75478c5.60127,-2.07809 8.27011,-7.82225 5.93076,-12.81163l-20.4721,-43.90457c-2.32837,-4.99918 -8.76434,-7.36154 -14.36561,-5.28345c-5.60127,2.08789 -8.24815,7.83205 -5.91977,12.82143l20.4721,43.90457z" stroke-opacity="null" stroke-width="0" stroke="#000" fill="#ffffff"/>
 </g>
</svg>