<svg width="380" height="460" xmlns="http://www.w3.org/2000/svg">
 <!-- Created with Method Draw - http://github.com/duopixel/Method-Draw/ -->
 <g>
  <title>background</title>
  <rect fill="#fff" id="canvas_background" height="462" width="382" y="-1" x="-1"/>
  <g display="none" overflow="visible" y="0" x="0" height="100%" width="100%" id="canvasGrid">
   <rect fill="url(#gridpattern)" stroke-width="0" y="0" x="0" height="100%" width="100%"/>
  </g>
 </g>
 <g>
  <title>Layer 1</title>
  <path id="svg_1" d="m56.2402,124.10452c-5.16004,24.88103 -18.34059,48.66008 -19.22814,74.31721c1.18093,14.85544 -10.52222,22.83499 -26.5435,22.55405c-17.23139,15.21062 2.12687,39.24935 21.62376,45.38942c19.89768,11.37386 44.58216,-1.33522 64.29262,8.86758c26.17221,17.42265 37.09852,48.31337 28.06912,75.39478c-8.97763,22.35577 36.97834,14.22517 19.69274,-3.64552c-13.35033,-17.46722 25.16633,-11.69222 15.30583,4.8913c-1.86324,13.31196 11.53059,17.6207 5.56989,30.51756c15.52862,7.58262 -1.30171,11.82825 -10.7601,13.25996c-22.14936,9.40265 4.00639,-16.84336 -13.54032,-24.60643c-16.06838,2.97387 -5.1804,25.88798 -10.6958,23.24142c-11.35438,-7.57146 -11.34601,-35.87901 -30.40251,-17.40867c-6.32466,-22.75872 5.21523,-46.46101 -3.67443,-69.08761c3.64156,-16.89784 -27.68775,-22.72637 -23.72515,-3.12771c1.57968,29.9117 -9.08636,59.76383 -2.96482,89.52815c8.43111,18.35839 32.01156,26.62862 46.81131,40.79527c12.15463,10.92329 27.91205,22.60206 46.83005,19.16303c21.45697,-0.79206 42.9535,-2.4796 64.31366,0.42144c26.86673,0.72161 47.37615,-17.36307 70.30418,-26.65275c26.95369,-18.22592 22.70991,-50.7812 20.02297,-76.71307c-3.29471,-16.01009 3.93513,-32.02746 2.58778,-47.88768c-19.43215,-20.24753 -35.37535,15.34155 -29.83982,30.63181c-0.00136,19.23398 4.33606,44.01062 -17.20932,56.53981c-17.78074,-0.38181 -34.70287,5.11812 -52.62076,2.24243c-14.53934,7.35262 -38.0895,7.16381 -42.88865,-10.33932c-1.91602,-15.54394 6.35465,-31.84019 -4.88289,-46.347c9.87354,7.24167 27.0998,-6.25438 17.49945,9.98095c-11.70967,13.21553 9.91529,33.5798 18.05609,14.07346c2.70089,-13.08762 -11.68284,-30.45771 11.96097,-27.65377c4.8218,4.61639 -16.46603,36.90797 12.63308,28.74753c20.74608,-3.86988 -3.69089,-31.58335 24.40334,-31.67965c13.59659,-13.63132 9.93572,-39.18147 30.73363,-49.5226c23.18954,-13.36434 59.39624,-3.71581 75.94753,-26.34825c14.10767,-11.58185 7.46866,-43.68291 -16.86196,-33.04627c-30.40542,2.52413 -6.27448,-35.06948 -7.12284,-49.15622c7.16404,-12.26905 -8.70018,-38.09539 -3.23741,-40.83545c10.32205,13.4487 14.019,29.17844 11.79911,44.89544c-0.19076,13.32854 -6.82835,49.45068 14.93106,27.18306c7.36614,-15.51857 5.22377,-33.09614 10.47177,-49.24142c10.12202,-34.85723 -8.00167,-69.73384 -28.20618,-99.25771c-17.20785,-15.8941 -39.0537,-28.56429 -59.56862,-41.03916c-34.50682,-11.05182 -72.6077,-13.03171 -109.05219,-10.26186c-32.23661,4.75837 -66.32671,9.77503 -92.00726,28.49236c-25.0279,12.55827 -48.99737,29.23759 -58.89193,53.36818c-8.62269,19.43962 -23.72211,39.23647 -16.85957,60.83108c6.56311,18.00152 3.08218,36.69674 4.14482,55.09613c11.18814,21.02868 21.75112,-10.76051 20.70409,-21.27531c0.61938,-19.93947 12.9727,-37.58879 22.07533,-55.28996l-0.00002,-0.00003zm205.49589,42.77748c23.00765,1.40397 52.13883,12.31465 52.76671,35.06126c3.49844,22.82682 -18.16069,44.95333 -45.91743,42.71481c-25.21202,-1.76357 -41.33655,-20.30921 -39.6624,-41.15978c-8.44091,-14.95009 4.69463,-30.96181 22.32374,-34.39859c3.41864,-0.97893 6.93261,-1.71168 10.48938,-2.21772l0,0.00002zm-155.26293,1.94426c26.69058,-4.04225 57.05766,10.05788 57.14678,35.21711c2.50679,24.32232 -27.81657,29.08755 -48.50184,35.18065c-14.31326,7.87021 -29.18135,0.54246 -41.07454,-7.38704c-15.43083,-13.75421 -10.89535,-41.47101 5.39804,-54.02625c7.90097,-4.97952 17.68173,-6.937 27.03156,-8.98448zm91.33121,64.16439c12.92123,15.12368 28.43325,38.18629 11.72331,55.35112c-14.83385,10.1309 -16.70401,-14.41012 -32.27356,-2.85232c-14.60605,-10.89337 -1.13474,-33.06031 9.11371,-44.12664c3.37783,-3.18669 7.24321,-5.99219 11.43654,-8.37216z" stroke-width="1.5" stroke="#000" fill="#020202"/>
 </g>
</svg>