<svg width="380" height="351" xmlns="http://www.w3.org/2000/svg">
 <!-- Created with Method Draw - http://github.com/duopixel/Method-Draw/ -->
 <g>
  <title>background</title>
  <rect fill="#fff" id="canvas_background" height="353" width="382" y="-1" x="-1"/>
  <g display="none" overflow="visible" y="0" x="0" height="100%" width="100%" id="canvasGrid">
   <rect fill="url(#gridpattern)" stroke-width="0" y="0" x="0" height="100%" width="100%"/>
  </g>
 </g>
 <g>
  <title>Layer 1</title>
  <path stroke="#000" id="svg_4" d="m189.82608,85.20583c-53.76531,0 -97.30903,40.3084 -97.30903,90.07891c0,49.73619 43.54372,90.06747 97.30903,90.06747c53.71587,0 97.28431,-40.33128 97.28431,-90.06747c0.01236,-49.77051 -43.54372,-90.07891 -97.28431,-90.07891zm0,157.27482c-40.09532,-0.09153 -72.50283,-30.09114 -72.60171,-67.18447c0.08652,-37.10478 32.50638,-67.11582 72.60171,-67.20736c40.0706,0.09153 72.47811,30.10258 72.56463,67.20736c-0.08652,37.09333 -32.49402,67.09294 -72.56463,67.18447zm0,-163.30449c6.83499,0 12.35984,-5.12579 12.35984,-11.45294l0,-55.5027c-0.02472,-6.32715 -5.53721,-11.4415 -12.35984,-11.4415c-6.83499,0 -12.3722,5.13723 -12.35984,11.46438l0,55.49126c0,6.30427 5.52485,11.4415 12.35984,11.4415zm39.71217,7.29968c1.54498,0.6064 3.15176,0.86955 4.72146,0.881c4.86978,0 9.45528,-2.66587 11.43285,-7.07085l22.93986,-51.29223c2.59557,-5.84661 -0.38316,-12.52844 -6.68667,-14.9426c-6.31588,-2.41416 -13.54639,0.35469 -16.16667,6.18985l-22.92751,51.30367c-2.60793,5.83516 0.38316,12.52844 6.68667,14.93115zm33.68057,20.83497c2.41017,2.21965 5.57429,3.35236 8.73841,3.35236s6.32824,-1.12127 8.73841,-3.35236l42.39425,-39.27866c4.8327,-4.46218 4.82034,-11.70465 0,-16.18972c-4.84506,-4.46218 -12.66884,-4.46218 -17.48917,0.02288l-42.38189,39.25578c-4.8327,4.47363 -4.8327,11.71609 0,16.18972zm22.53199,31.16664c1.95285,4.40498 6.56308,7.0594 11.40813,7.0594c1.5697,0 3.17648,-0.28604 4.73382,-0.89244l55.37209,-21.24686c6.31588,-2.41416 9.30696,-9.11887 6.68667,-14.95404s-9.83843,-8.60401 -16.15431,-6.17841l-55.38445,21.24686c-6.30352,2.4256 -9.28224,9.13032 -6.66195,14.96548zm80.20301,25.29715l-59.95759,0.01144c-6.82263,0 -12.35984,5.12579 -12.33512,11.45294c0,6.32715 5.52485,11.43006 12.33512,11.43006l59.96995,-0.02288c6.83499,0 12.34748,-5.13723 12.34748,-11.4415c0,-6.32715 -5.53721,-11.45294 -12.35984,-11.43006zm-8.62717,63.2486l-55.39681,-21.21254c-6.32824,-2.4256 -13.55875,0.34324 -16.15431,6.18985c-2.60793,5.84661 0.38316,12.53988 6.68667,14.96548l55.39681,21.21254c1.55734,0.58352 3.16412,0.85811 4.73382,0.85811c4.85742,0 9.45528,-2.65443 11.43285,-7.0594c2.59557,-5.84661 -0.40787,-12.55132 -6.69903,-14.95404zm-76.55686,16.16684c-4.8327,-4.47363 -12.64412,-4.47363 -17.47682,0.01144c-4.8327,4.46218 -4.82034,11.69321 0,16.16684l42.44369,39.23289c2.41017,2.23109 5.56193,3.35236 8.72605,3.35236s6.3406,-1.12127 8.75077,-3.35236c4.8327,-4.48507 4.80798,-11.72753 0,-16.18972l-42.44369,-39.22145zm-34.99071,27.03626c-2.60793,-5.84661 -9.83843,-8.60401 -16.15431,-6.18985c-6.30352,2.4256 -9.2946,9.11887 -6.67431,14.96548l22.9893,51.25791c1.96521,4.40498 6.56308,7.0594 11.43285,7.0594c1.58206,0 3.18884,-0.2746 4.73382,-0.86955c6.31588,-2.41416 9.2946,-9.11887 6.67431,-14.97692l-23.00166,-51.24647zm-55.8294,1.17847c-6.83499,0 -12.35984,5.12579 -12.35984,11.4415l0.04944,55.5027c0,6.32715 5.54957,11.43006 12.35984,11.43006c6.83499,0 12.35984,-5.12579 12.33512,-11.4415l-0.03708,-55.51415c0,-6.29282 -5.54957,-11.43006 -12.34748,-11.41861zm-39.74925,-7.27679c-6.30352,-2.40271 -13.52167,0.35469 -16.14195,6.21273l-22.89043,51.29223c-2.59557,5.84661 0.40787,12.53988 6.71139,14.95404c1.54498,0.59496 3.1394,0.86955 4.72146,0.86955c4.84506,0 9.45528,-2.67731 11.42049,-7.08229l22.90279,-51.31512c2.60793,-5.83516 -0.40787,-12.517 -6.72375,-14.93115zm-33.69293,-20.7892c-4.84506,-4.47363 -12.66884,-4.45074 -17.48917,0.02288l-42.34482,39.27866c-4.8327,4.48507 -4.80798,11.70465 0.02472,16.18972c2.41017,2.21965 5.56193,3.34092 8.72605,3.34092c3.17648,0 6.3406,-1.12127 8.75077,-3.35236l42.35718,-39.2901c4.80798,-4.47363 4.80798,-11.71609 -0.02472,-16.18972zm-22.54435,-31.13231c-2.63265,-5.82372 -9.85079,-8.59256 -16.15431,-6.17841l-55.35973,21.29263c-6.31588,2.4256 -9.2946,9.13032 -6.67431,14.96548c1.97757,4.40498 6.56308,7.04796 11.42049,7.04796c1.5697,0 3.18884,-0.2746 4.73382,-0.86955l55.35973,-21.29263c6.29116,-2.44848 9.28224,-9.14176 6.67431,-14.96548zm-7.98446,-36.75009c0,-6.32715 -5.52485,-11.43006 -12.35984,-11.43006l-59.95759,0.06865c-6.83499,0 -12.3722,5.12579 -12.34748,11.45294c0.01236,6.30427 5.54957,11.4415 12.35984,11.41861l59.96995,-0.06865c6.82263,0 12.35984,-5.14867 12.33512,-11.4415zm-63.72734,-51.74989l55.43389,21.16677c1.54498,0.6064 3.1394,0.86955 4.7091,0.86955c4.85742,0 9.46764,-2.65443 11.43285,-7.07085c2.62029,-5.84661 -0.39551,-12.55132 -6.72375,-14.9426l-55.40917,-21.16677c-6.31588,-2.40271 -13.53403,0.36613 -16.14195,6.20129c-2.62029,5.84661 0.40787,12.517 6.69903,14.9426zm76.5445,-16.22404c2.41017,2.20821 5.54957,3.32948 8.71369,3.32948s6.3406,-1.12127 8.76313,-3.37524c4.8327,-4.45074 4.80798,-11.70465 -0.04944,-16.17828l-42.44369,-39.17569c-4.82034,-4.46218 -12.66884,-4.4393 -17.47682,0.03432c-4.8327,4.46218 -4.80798,11.71609 0.02472,16.17828l42.46841,39.18713zm34.94127,-27.08202c1.97757,4.39354 6.57544,7.03652 11.40813,7.03652c1.58206,0 3.18884,-0.28604 4.74618,-0.881c6.30352,-2.4256 9.30696,-9.13032 6.67431,-14.95404l-23.03874,-51.24647c-2.62029,-5.83516 -9.86315,-8.59256 -16.16667,-6.16697c-6.30352,2.43704 -9.28224,9.14176 -6.66195,14.96548l23.03874,51.24647z" fill-opacity="null" stroke-opacity="null" stroke-width="1.5" fill="#020202"/>
 </g>
</svg>